<svg id="Layer_1" data-name="Layer 1" xmlns="http://www.w3.org/2000/svg" viewBox="0 0 465.64 128.11"><defs><style>.cls-1{fill:#44b6e5;}.cls-2{fill:#005686;}</style></defs><path class="cls-1" d="M56.39,102.13H68.85V78c-1.08,1-8,7-12.46,9.21Z" transform="translate(-6.54 -16.71)"/><path class="cls-1" d="M98.17,39.21V61a35.08,35.08,0,0,0-15-3.36,36.56,36.56,0,0,0-14.31,3V39.21H56.39V69.74l-1.1.88a22.91,22.91,0,1,1-1.13-37.85V18.91A35.36,35.36,0,1,0,55.29,84.8a11.34,11.34,0,0,0,1.1-.49c4.48-2.25,11.38-8.26,12.46-9.21L69,75a22.82,22.82,0,0,1,29.16.73v26.44h12.46V39.21Z" transform="translate(-6.54 -16.71)"/><path class="cls-1" d="M29.83,54.63a5.3,5.3,0,0,0,0-1.54c-.06-1.11-.19-2.21-.3-3.31-.26-2.69-.4-5.44,1.12-7.82a8,8,0,0,1,1.2-1.47l.09-.08a10.67,10.67,0,0,1,7.12-2.93,11.44,11.44,0,0,1,3.7.46,20.42,20.42,0,0,1,3.46,1.32,8.39,8.39,0,0,1,1.4.91,4.63,4.63,0,0,1,1.11,1.14,4,4,0,0,1,.54,3.83,3.59,3.59,0,0,1-.17.34l-.17.3a5.46,5.46,0,0,0-.07-.7,1.21,1.21,0,0,1-.5.74l-.06,0a3.55,3.55,0,0,1-.18.63,5.26,5.26,0,0,0-.52,1.21,1.8,1.8,0,0,0,0,.22c.49,0,.54-.32.53-.14s-.41.35-.55.41a4,4,0,0,0,1,2,10.63,10.63,0,0,1,.83.83c.38.55-.62,1.11-.79,1.34.16.37.26.41.32.62s-.65.46-.5.7.25.59,0,.77c-.65.46-.56.59-.37,1.59s-.38,1.4-1.12,1.56-2.6-.45-3.21-.08l0,0c-1.37,1.06-2.48,3.29,1.11,8.42.27.39,1.27,1.59.62,1.59-2.69,0-7.09-5.78-13.39-2-.81.48,2.77-4.59,3.32-7.26a3.54,3.54,0,0,1-1.71-.84,1.22,1.22,0,0,0,.57.76,1.5,1.5,0,0,0-.29,0l-.29,0a3.4,3.4,0,0,1-2.15-.58,2,2,0,0,1-.71-1,4.2,4.2,0,0,1-.15-1,1.22,1.22,0,0,1-.48.63,1.61,1.61,0,0,1-1.11.23A4.24,4.24,0,0,0,29.83,54.63Z" transform="translate(-6.54 -16.71)"/><path class="cls-2" d="M149.72,58.85A2.39,2.39,0,0,1,152,57.36a2.51,2.51,0,0,1,2.49,2.38,3.45,3.45,0,0,1-.26,1.37c-1.6,3.76-5.58,5.92-9.75,5.92-6.33,0-10.68-4.61-11.16-10.57a38.86,38.86,0,0,1,0-5.91c.48-6,4.83-10.61,11.16-10.61,4.17,0,8.15,2.16,9.75,5.92a3.45,3.45,0,0,1,.26,1.37,2.47,2.47,0,0,1-4.73.9,5.84,5.84,0,0,0-5.28-3.28c-3.61,0-5.84,2.68-6.1,6.33a31.51,31.51,0,0,0,0,4.76c.26,3.69,2.49,6.18,6.1,6.18A5.84,5.84,0,0,0,149.72,58.85Z" transform="translate(-6.54 -16.71)"/><path class="cls-2" d="M164.28,47.87A7.67,7.67,0,0,1,169,46.42c4.72,0,7.52,2.82,7.52,8.15v9.56a2.5,2.5,0,1,1-5,0v-9.3c0-2.27-1.3-3.54-3.35-3.54a5.55,5.55,0,0,0-3.87,1.56V64.2a2.48,2.48,0,0,1-2.46,2.57,2.57,2.57,0,0,1-2.53-2.57V42.43a2.5,2.5,0,1,1,5,0Z" transform="translate(-6.54 -16.71)"/><path class="cls-2" d="M184.27,44.48a2.68,2.68,0,0,1-2.65-2.72,2.58,2.58,0,0,1,2.65-2.64,2.62,2.62,0,0,1,2.64,2.64A2.72,2.72,0,0,1,184.27,44.48Zm2.49,4.61V64.2a2.51,2.51,0,0,1-2.49,2.57,2.56,2.56,0,0,1-2.5-2.57V49.09a2.46,2.46,0,0,1,2.5-2.56A2.51,2.51,0,0,1,186.76,49.09Z" transform="translate(-6.54 -16.71)"/><path class="cls-2" d="M197.29,42.51V64.2a2.48,2.48,0,0,1-2.49,2.57,2.55,2.55,0,0,1-2.49-2.57V42.51a2.49,2.49,0,1,1,5,0Z" transform="translate(-6.54 -16.71)"/><path class="cls-2" d="M210.28,46.42a12.11,12.11,0,0,1,4.39.93V42.43a2.51,2.51,0,0,1,2.5-2.56,2.48,2.48,0,0,1,2.49,2.56v20.4a1.82,1.82,0,0,1-.89,1.75,14.47,14.47,0,0,1-7.82,2.3c-5.17,0-8.41-3.2-8.82-7.74a39.91,39.91,0,0,1,0-5.13C202.54,49.39,205.37,46.42,210.28,46.42Zm.78,15.7A6.76,6.76,0,0,0,214.67,61V52.18a8.28,8.28,0,0,0-3.9-1c-2.39,0-3.5,1.34-3.65,3.61a27.15,27.15,0,0,0,0,3.61A3.57,3.57,0,0,0,211.06,62.12Z" transform="translate(-6.54 -16.71)"/><path class="cls-2" d="M236.89,49.28a2.35,2.35,0,0,1-2.34,2.35c-.86,0-1.68-.38-2.79-.34s-1.94.71-1.94,2.42V64.24a2.47,2.47,0,0,1-2.49,2.53,2.5,2.5,0,0,1-2.5-2.53V52.78c0-3.87,2.27-6.36,6.55-6.36a15.25,15.25,0,0,1,3.2.29A2.66,2.66,0,0,1,236.89,49.28Z" transform="translate(-6.54 -16.71)"/><path class="cls-2" d="M256.43,55.87a2.27,2.27,0,0,1-2.57,2.49H244v.37c0,2.35,1.79,3.61,4.29,3.61a11.28,11.28,0,0,0,4-.82,2.24,2.24,0,0,1,3.27,2,2.31,2.31,0,0,1-1.26,2.08,13.08,13.08,0,0,1-6.14,1.3c-5.14,0-8.6-3.23-9-7.89a37.89,37.89,0,0,1,0-4.65c.44-4.84,3.91-7.92,8.78-7.92,5.06,0,8.52,3.38,8.52,8.63ZM251.22,55c.26,0,.41-.15.41-.45a3.41,3.41,0,0,0-3.72-3.8c-2.64,0-3.95,1.68-3.95,4.25Z" transform="translate(-6.54 -16.71)"/><path class="cls-2" d="M278,64.2a2.48,2.48,0,0,1-2.49,2.57A2.56,2.56,0,0,1,273,64.2V54.79a3.3,3.3,0,0,0-3.61-3.5,7.6,7.6,0,0,0-3.64.89v12a2.49,2.49,0,0,1-2.5,2.57,2.55,2.55,0,0,1-2.49-2.57V50.29a1.92,1.92,0,0,1,.89-1.83,14.28,14.28,0,0,1,7.89-2c5.58,0,8.45,2.94,8.45,8.15Z" transform="translate(-6.54 -16.71)"/><path class="cls-2" d="M286.4,44.37a8.71,8.71,0,0,1-1.08,4.46A2.72,2.72,0,0,1,283,50.32a2,2,0,0,1-2.08-2c0-1.12,1-1.75,1-3.76V42.43a2.19,2.19,0,0,1,2.24-2.19,2.22,2.22,0,0,1,2.27,2.19Z" transform="translate(-6.54 -16.71)"/><path class="cls-2" d="M303.52,60.41c0,4.17-3.47,6.47-7.78,6.47-3.5,0-5.73-1-7.11-2.16a2.32,2.32,0,0,1-.45-3.08,2.28,2.28,0,0,1,3.24-.45,8.2,8.2,0,0,0,4.43,1.23c1.93,0,2.83-.71,2.83-1.71,0-.82-.6-1.38-2.16-1.75-1.34-.3-1.3-.26-2.76-.64-3.05-.78-5.43-2.49-5.43-5.69,0-4,3.24-6.21,7.59-6.21,2.35,0,4.77.59,6.07,1.67a2.32,2.32,0,0,1,.22,3.31,2.64,2.64,0,0,1-3.24.3,8,8,0,0,0-3.23-.82c-1.86,0-2.65.71-2.65,1.6s.56,1.3,2.24,1.68l2.64.59C301.69,55.64,303.52,57.47,303.52,60.41Z" transform="translate(-6.54 -16.71)"/><path class="cls-2" d="M317.06,42.77a2.59,2.59,0,0,1,2.57-2.61,2.53,2.53,0,0,1,2.53,2.61V51H334V42.77a2.58,2.58,0,0,1,2.53-2.61,2.54,2.54,0,0,1,2.57,2.61V64.09a2.57,2.57,0,0,1-2.57,2.64A2.62,2.62,0,0,1,334,64.09V56h-11.8v8.15a2.5,2.5,0,0,1-2.53,2.6,2.61,2.61,0,0,1-2.57-2.6Z" transform="translate(-6.54 -16.71)"/><path class="cls-2" d="M353.05,66.88c-4.87,0-8.55-3.12-8.93-7.55a42.92,42.92,0,0,1,0-5.32c.38-4.47,4.06-7.59,8.93-7.59s8.53,3.12,8.9,7.59a42.28,42.28,0,0,1,0,5.28C361.58,63.76,358,66.88,353.05,66.88ZM357,54.79a3.68,3.68,0,0,0-3.95-3.61,3.76,3.76,0,0,0-4,3.61,33,33,0,0,0,0,3.72,3.76,3.76,0,0,0,4,3.61A3.7,3.7,0,0,0,357,58.51,33,33,0,0,0,357,54.79Z" transform="translate(-6.54 -16.71)"/><path class="cls-2" d="M381.34,60.41c0,4.17-3.46,6.47-7.78,6.47-3.5,0-5.73-1-7.11-2.16a2.31,2.31,0,0,1-.44-3.08,2.28,2.28,0,0,1,3.24-.45,8.16,8.16,0,0,0,4.42,1.23c1.94,0,2.83-.71,2.83-1.71,0-.82-.59-1.38-2.16-1.75-1.34-.3-1.3-.26-2.75-.64-3-.78-5.43-2.49-5.43-5.69,0-4,3.23-6.21,7.59-6.21,2.34,0,4.76.59,6.06,1.67A2.32,2.32,0,0,1,380,51.4a2.64,2.64,0,0,1-3.24.3,8.08,8.08,0,0,0-3.24-.82c-1.86,0-2.64.71-2.64,1.6s.56,1.3,2.23,1.68l2.64.59C379.52,55.64,381.34,57.47,381.34,60.41Z" transform="translate(-6.54 -16.71)"/><path class="cls-2" d="M394.55,66.88a9.38,9.38,0,0,1-4.24-.93V71.5a2.49,2.49,0,1,1-5,0V50.1a1.35,1.35,0,0,1,.63-1.27,14.81,14.81,0,0,1,8.15-2.41c5.13,0,8.33,3.16,8.74,7.74a39.29,39.29,0,0,1,0,5.09C402.48,63.87,399.54,66.88,394.55,66.88ZM394,51.22a7.5,7.5,0,0,0-3.69,1.11v8.78a7.76,7.76,0,0,0,3.76,1c2.49,0,3.61-1.3,3.8-3.57a31,31,0,0,0,0-3.61C397.68,52.52,396.38,51.22,394,51.22Z" transform="translate(-6.54 -16.71)"/><path class="cls-2" d="M410.34,44.48a2.68,2.68,0,0,1-2.65-2.72,2.58,2.58,0,0,1,2.65-2.64A2.62,2.62,0,0,1,413,41.76,2.72,2.72,0,0,1,410.34,44.48Zm2.49,4.61V64.2a2.51,2.51,0,0,1-2.49,2.57,2.56,2.56,0,0,1-2.5-2.57V49.09a2.46,2.46,0,0,1,2.5-2.56A2.51,2.51,0,0,1,412.83,49.09Z" transform="translate(-6.54 -16.71)"/><path class="cls-2" d="M424.89,66.88c-4.62,0-6.7-3.16-6.7-7.33V44.85a2.52,2.52,0,0,1,2.49-2.6,2.54,2.54,0,0,1,2.5,2.6v2.53h4.65a2.2,2.2,0,1,1,0,4.39h-4.65v7.67c0,1.79.78,2.75,2.41,2.75a8.63,8.63,0,0,0,2.31-.41A2.29,2.29,0,0,1,431,63.91a2.36,2.36,0,0,1-1.56,2.19A11.71,11.71,0,0,1,424.89,66.88Z" transform="translate(-6.54 -16.71)"/><path class="cls-2" d="M449.93,63.09a1.8,1.8,0,0,1-.89,1.75,14.36,14.36,0,0,1-7.85,2c-5.4,0-7.85-3-7.85-6.55,0-3.16,2.19-6.06,7.66-6.06a15.79,15.79,0,0,1,4.13.56v-1c0-1.93-.93-2.9-3.53-2.9a12.19,12.19,0,0,0-3.57.63c-2.13.67-3.43-.41-3.43-1.93a2.33,2.33,0,0,1,1.64-2.27,15.55,15.55,0,0,1,5.47-.93c5.25,0,8.22,2.3,8.22,7.55Zm-4.8-1.42V58.32a12.18,12.18,0,0,0-3.72-.59c-2,0-3.24,1-3.24,2.42,0,1.63,1.31,2.49,3.35,2.49A6.4,6.4,0,0,0,445.13,61.67Z" transform="translate(-6.54 -16.71)"/><path class="cls-2" d="M460,42.51V64.2a2.48,2.48,0,0,1-2.49,2.57A2.55,2.55,0,0,1,455,64.2V42.51a2.49,2.49,0,1,1,5,0Z" transform="translate(-6.54 -16.71)"/><path class="cls-2" d="M142.24,104.1c-4.87,0-8.55-3.12-8.93-7.55a42.92,42.92,0,0,1,0-5.32c.38-4.47,4.06-7.6,8.93-7.6s8.53,3.13,8.9,7.6a42.28,42.28,0,0,1,0,5.28C150.77,101,147.16,104.1,142.24,104.1ZM146.19,92a3.68,3.68,0,0,0-3.95-3.61,3.76,3.76,0,0,0-4,3.61,33,33,0,0,0,0,3.72,3.76,3.76,0,0,0,4,3.61,3.7,3.7,0,0,0,3.95-3.61A33,33,0,0,0,146.19,92Z" transform="translate(-6.54 -16.71)"/><path class="cls-2" d="M157.24,83.63c0-4.5,2.57-6.92,6.63-6.92a15.19,15.19,0,0,1,3.76.49,2.38,2.38,0,0,1,1.93,2.38,2.17,2.17,0,0,1-2.34,2.16c-.82,0-1.71-.34-2.87-.34-1.34,0-2.12.82-2.12,2.42v.78h4.32a2.2,2.2,0,1,1,0,4.39h-4.32v12.36a2.5,2.5,0,0,1-2.49,2.64,2.55,2.55,0,0,1-2.5-2.64V89h-.89a2.2,2.2,0,1,1,0-4.39h.89Z" transform="translate(-6.54 -16.71)"/><path class="cls-2" d="M188.36,95.25v6.06a2.63,2.63,0,0,1-2.53,2.64,2.66,2.66,0,0,1-2.57-2.64V80.84a3.16,3.16,0,0,1,3.39-3.31h7.4c4.91,0,9.12,3.28,9.12,8.86s-4,8.86-9.45,8.86Zm5.25-4.92c3.12,0,4.46-1.48,4.46-3.9s-1.41-3.91-4.35-3.91h-5.36v7.81Z" transform="translate(-6.54 -16.71)"/><path class="cls-2" d="M212.1,85.09a7.67,7.67,0,0,1,4.69-1.46c4.73,0,7.52,2.83,7.52,8.16v9.56a2.5,2.5,0,1,1-5,0v-9.3c0-2.27-1.3-3.54-3.35-3.54a5.57,5.57,0,0,0-3.87,1.56v11.35a2.48,2.48,0,0,1-2.45,2.57,2.56,2.56,0,0,1-2.53-2.57V79.65a2.49,2.49,0,1,1,5,0Z" transform="translate(-6.54 -16.71)"/><path class="cls-2" d="M232.09,81.7A2.67,2.67,0,0,1,229.45,79a2.59,2.59,0,0,1,2.64-2.64A2.63,2.63,0,0,1,234.73,79,2.72,2.72,0,0,1,232.09,81.7Zm2.49,4.61v15.11a2.5,2.5,0,0,1-2.49,2.57,2.55,2.55,0,0,1-2.49-2.57V86.31a2.46,2.46,0,0,1,2.49-2.56A2.5,2.5,0,0,1,234.58,86.31Z" transform="translate(-6.54 -16.71)"/><path class="cls-2" d="M245.12,79.73v21.69a2.49,2.49,0,0,1-2.5,2.57,2.55,2.55,0,0,1-2.49-2.57V79.73a2.52,2.52,0,0,1,2.49-2.61A2.55,2.55,0,0,1,245.12,79.73Z" transform="translate(-6.54 -16.71)"/><path class="cls-2" d="M266.18,100.31a1.8,1.8,0,0,1-.89,1.75,14.36,14.36,0,0,1-7.85,2c-5.4,0-7.85-3-7.85-6.55,0-3.16,2.19-6.06,7.66-6.06a15.79,15.79,0,0,1,4.13.56V91c0-1.93-.93-2.9-3.53-2.9a12.2,12.2,0,0,0-3.58.63c-2.12.67-3.42-.41-3.42-1.93a2.33,2.33,0,0,1,1.64-2.27,15.51,15.51,0,0,1,5.47-.94c5.24,0,8.22,2.31,8.22,7.56Zm-4.8-1.42V95.54a12.23,12.23,0,0,0-3.72-.59c-2,0-3.24,1-3.24,2.42,0,1.63,1.31,2.49,3.35,2.49A6.4,6.4,0,0,0,261.38,98.89Z" transform="translate(-6.54 -16.71)"/><path class="cls-2" d="M278.88,83.63a12.2,12.2,0,0,1,4.39.94V79.65a2.49,2.49,0,1,1,5,0v20.4a1.82,1.82,0,0,1-.89,1.75,14.44,14.44,0,0,1-7.82,2.3c-5.17,0-8.4-3.2-8.81-7.74a36.6,36.6,0,0,1,0-5.13C271.14,86.61,274,83.63,278.88,83.63Zm.78,15.71a6.83,6.83,0,0,0,3.61-1.15V89.4a8.33,8.33,0,0,0-3.91-1c-2.38,0-3.5,1.34-3.65,3.61a31,31,0,0,0,0,3.61A3.58,3.58,0,0,0,279.66,99.34Z" transform="translate(-6.54 -16.71)"/><path class="cls-2" d="M310.47,93.09a2.27,2.27,0,0,1-2.56,2.49H298V96c0,2.35,1.78,3.61,4.28,3.61a11.23,11.23,0,0,0,4-.82,2.24,2.24,0,0,1,3.27,2,2.31,2.31,0,0,1-1.26,2.08,13.08,13.08,0,0,1-6.14,1.3c-5.14,0-8.6-3.23-9-7.89a37.89,37.89,0,0,1,0-4.65A8.35,8.35,0,0,1,302,83.63c5.06,0,8.52,3.39,8.52,8.64Zm-5.21-.9c.26,0,.41-.14.41-.44A3.41,3.41,0,0,0,302,88c-2.64,0-3.94,1.68-3.94,4.24Z" transform="translate(-6.54 -16.71)"/><path class="cls-2" d="M319.93,79.73v21.69a2.48,2.48,0,0,1-2.49,2.57,2.56,2.56,0,0,1-2.5-2.57V79.73a2.5,2.5,0,1,1,5,0Z" transform="translate(-6.54 -16.71)"/><path class="cls-2" d="M334.44,104.1a9.51,9.51,0,0,1-4.24-.93v5.55a2.5,2.5,0,1,1-5,0V87.32a1.36,1.36,0,0,1,.64-1.27A14.79,14.79,0,0,1,334,83.63c5.13,0,8.33,3.17,8.74,7.75a39.29,39.29,0,0,1,0,5.09C342.37,101.09,339.43,104.1,334.44,104.1Zm-.55-15.66a7.5,7.5,0,0,0-3.69,1.11v8.78a7.76,7.76,0,0,0,3.76,1c2.49,0,3.61-1.3,3.8-3.57a31,31,0,0,0,0-3.61C337.57,89.74,336.27,88.44,333.89,88.44Z" transform="translate(-6.54 -16.71)"/><path class="cls-2" d="M352.53,85.09a7.67,7.67,0,0,1,4.69-1.46c4.73,0,7.52,2.83,7.52,8.16v9.56a2.5,2.5,0,1,1-5,0v-9.3c0-2.27-1.3-3.54-3.35-3.54a5.55,5.55,0,0,0-3.87,1.56v11.35a2.48,2.48,0,0,1-2.45,2.57,2.57,2.57,0,0,1-2.54-2.57V79.65a2.5,2.5,0,1,1,5,0Z" transform="translate(-6.54 -16.71)"/><path class="cls-2" d="M372.52,81.7A2.67,2.67,0,0,1,369.88,79a2.58,2.58,0,0,1,2.64-2.64A2.63,2.63,0,0,1,375.16,79,2.72,2.72,0,0,1,372.52,81.7ZM375,86.31v15.11a2.51,2.51,0,0,1-2.49,2.57,2.55,2.55,0,0,1-2.49-2.57V86.31a2.46,2.46,0,0,1,2.49-2.56A2.5,2.5,0,0,1,375,86.31Z" transform="translate(-6.54 -16.71)"/><path class="cls-1" d="M138,137.08v5.39a2.13,2.13,0,0,1-2.05,2.14,2.16,2.16,0,0,1-2.08-2.14v-16.6a2.56,2.56,0,0,1,2.75-2.68h6.17c3.95,0,7.36,2.5,7.36,7,0,3.46-1.78,5.57-3.92,6.24l3.89,4.67A2.14,2.14,0,0,1,150,144a2.11,2.11,0,0,1-3,0l-4.79-6a1.92,1.92,0,0,0-1.69-1Zm4.37-3.8c2.68,0,3.62-1.17,3.62-3s-1.12-3.05-3.47-3.05H138v6.06Z" transform="translate(-6.54 -16.71)"/><path class="cls-1" d="M168.1,123.19a1.93,1.93,0,0,1,2,2,2,2,0,0,1-2,2h-8.8v4.76h8.43a1.84,1.84,0,0,1,1.87,1.87,1.94,1.94,0,0,1-1.87,1.9H159.3v4.85h8.86a2,2,0,0,1,2,2,2,2,0,0,1-2,2h-10a2.82,2.82,0,0,1-3-3V126.14a2.81,2.81,0,0,1,3-3Z" transform="translate(-6.54 -16.71)"/><path class="cls-1" d="M181.77,135.75c-5-1-7.23-2.86-7.23-6.51,0-3.85,3.29-6.36,7.69-6.36,2.89,0,5.33.67,6.57,1.72a1.94,1.94,0,0,1,.72,1.54,2,2,0,0,1-2,2,3.5,3.5,0,0,1-1.51-.42,8.52,8.52,0,0,0-3.73-.85c-2.63,0-3.65,1.06-3.65,2.32s1.21,1.93,4.28,2.5c5.33,1,7.68,2.69,7.68,6.54s-2.95,6.54-8.07,6.54a11.78,11.78,0,0,1-7.42-2.14,2.49,2.49,0,0,1-1.11-1.86,2.07,2.07,0,0,1,2.08-2.11,2.41,2.41,0,0,1,1.54.57,8.5,8.5,0,0,0,5.06,1.5c2.32,0,3.77-.87,3.77-2.35S184.79,136.36,181.77,135.75Z" transform="translate(-6.54 -16.71)"/><path class="cls-1" d="M208,123.19a1.94,1.94,0,0,1,2,2,2,2,0,0,1-2,2h-8.8v4.76h8.44a1.85,1.85,0,0,1,1.87,1.87,2,2,0,0,1-1.87,1.9h-8.44v4.85h8.86a2.05,2.05,0,0,1,2,2,2,2,0,0,1-2,2h-10a2.83,2.83,0,0,1-3-3V126.14a2.82,2.82,0,0,1,3-3Z" transform="translate(-6.54 -16.71)"/><path class="cls-1" d="M227.18,138.37h-8.4l-1.66,4.86a2.08,2.08,0,0,1-2.68,1.17,2.12,2.12,0,0,1-1.15-2.68L219,125.81a4.18,4.18,0,0,1,8,0l5.67,15.91a2.12,2.12,0,0,1-1.15,2.65,2,2,0,0,1-2.68-1.14ZM220,134.7h5.91l-2.44-7.21a.52.52,0,0,0-.49-.39.52.52,0,0,0-.51.39Z" transform="translate(-6.54 -16.71)"/><path class="cls-1" d="M240.8,137.08v5.39a2.13,2.13,0,0,1-2.05,2.14,2.16,2.16,0,0,1-2.08-2.14v-16.6a2.56,2.56,0,0,1,2.74-2.68h6.18c3.95,0,7.36,2.5,7.36,7,0,3.46-1.78,5.57-3.92,6.24l3.89,4.67a2.14,2.14,0,0,1-.09,2.89,2.11,2.11,0,0,1-3,0l-4.79-6a1.92,1.92,0,0,0-1.69-1Zm4.37-3.8c2.68,0,3.62-1.17,3.62-3s-1.12-3.05-3.47-3.05H240.8v6.06Z" transform="translate(-6.54 -16.71)"/><path class="cls-1" d="M270.63,138.19a1.93,1.93,0,0,1,1.81-1.2,2,2,0,0,1,2,1.93,2.75,2.75,0,0,1-.21,1.11,8.42,8.42,0,0,1-7.9,4.79,8.91,8.91,0,0,1-9-8.56,31.91,31.91,0,0,1,0-4.79,8.94,8.94,0,0,1,9-8.59,8.42,8.42,0,0,1,7.9,4.8,2.75,2.75,0,0,1,.21,1.11,2,2,0,0,1-3.83.72,4.74,4.74,0,0,0-4.28-2.65c-2.92,0-4.73,2.17-4.94,5.13a27.48,27.48,0,0,0,0,3.85c.21,3,2,5,4.94,5A4.73,4.73,0,0,0,270.63,138.19Z" transform="translate(-6.54 -16.71)"/><path class="cls-1" d="M279,125.17a2.08,2.08,0,0,1,2.08-2.1,2,2,0,0,1,2.05,2.1v6.66h9.55v-6.66a2.08,2.08,0,0,1,2-2.1,2.05,2.05,0,0,1,2.08,2.1v17.27a2.08,2.08,0,0,1-2.08,2.14,2.13,2.13,0,0,1-2-2.14v-6.57h-9.55v6.6a2,2,0,0,1-2.05,2.11,2.1,2.1,0,0,1-2.08-2.11Z" transform="translate(-6.54 -16.71)"/><path class="cls-1" d="M312.06,125.17a2.11,2.11,0,0,1,2.08-2.1,2,2,0,0,1,2.05,2.1v17.27a2.07,2.07,0,0,1-2.05,2.14,2.12,2.12,0,0,1-2.08-2.14Z" transform="translate(-6.54 -16.71)"/><path class="cls-1" d="M336.14,138.8h.06c-.06-2-.09-3-.09-4.77v-8.86a2.05,2.05,0,1,1,4.1,0v16.25a3,3,0,0,1-3,3.16,3.34,3.34,0,0,1-3-1.84L326,128.55h-.06c.06,1.6.06,3.56.06,5.06v8.89a2,2,0,0,1-2,2.14,2.16,2.16,0,0,1-2.08-2.14V126.56a3.2,3.2,0,0,1,3.29-3.43,3.26,3.26,0,0,1,2.95,1.77Z" transform="translate(-6.54 -16.71)"/><path class="cls-1" d="M352.62,135.75c-5-1-7.23-2.86-7.23-6.51,0-3.85,3.28-6.36,7.68-6.36,2.9,0,5.34.67,6.57,1.72a1.94,1.94,0,0,1,.72,1.54,2,2,0,0,1-1.95,2,3.43,3.43,0,0,1-1.51-.42,8.54,8.54,0,0,0-3.74-.85c-2.62,0-3.64,1.06-3.64,2.32s1.2,1.93,4.28,2.5c5.33,1,7.68,2.69,7.68,6.54s-3,6.54-8.08,6.54a11.76,11.76,0,0,1-7.41-2.14,2.49,2.49,0,0,1-1.11-1.86,2.06,2.06,0,0,1,2.07-2.11,2.37,2.37,0,0,1,1.54.57,8.52,8.52,0,0,0,5.06,1.5c2.32,0,3.77-.87,3.77-2.35S355.63,136.36,352.62,135.75Z" transform="translate(-6.54 -16.71)"/><path class="cls-1" d="M370.22,127.22H365.4a2.06,2.06,0,0,1-2.12-2,2,2,0,0,1,2.12-2h13.77a2,2,0,0,1,2.11,2,2.1,2.1,0,0,1-2.11,2h-4.82v15.25a2,2,0,0,1-2,2.11,2.13,2.13,0,0,1-2.11-2.11Z" transform="translate(-6.54 -16.71)"/><path class="cls-1" d="M384.89,125.17a2.1,2.1,0,0,1,2.08-2.1,2,2,0,0,1,2,2.1v17.27a2.07,2.07,0,0,1-2,2.14,2.11,2.11,0,0,1-2.08-2.14Z" transform="translate(-6.54 -16.71)"/><path class="cls-1" d="M399.56,127.22h-4.82a2.06,2.06,0,0,1-2.11-2,2,2,0,0,1,2.11-2h13.77a2,2,0,0,1,2.11,2,2.09,2.09,0,0,1-2.11,2h-4.82v15.25a2,2,0,0,1-2,2.11,2.14,2.14,0,0,1-2.11-2.11Z" transform="translate(-6.54 -16.71)"/><path class="cls-1" d="M432.23,135.39c0,5.61-3.92,9.43-9.13,9.43S414,141,414,135.39V125.17a2.1,2.1,0,0,1,2.08-2.1,2,2,0,0,1,2.05,2.1v10.37c0,3.29,2.11,5.31,5,5.31s5-2,5-5.31V125.17a2.07,2.07,0,1,1,4.13,0Z" transform="translate(-6.54 -16.71)"/><path class="cls-1" d="M442.53,127.22h-4.82a2.05,2.05,0,0,1-2.11-2,2,2,0,0,1,2.11-2h13.77a2,2,0,0,1,2.11,2,2.09,2.09,0,0,1-2.11,2h-4.82v15.25a2,2,0,0,1-2,2.11,2.14,2.14,0,0,1-2.11-2.11Z" transform="translate(-6.54 -16.71)"/><path class="cls-1" d="M470.13,123.19a1.94,1.94,0,0,1,2,2,2,2,0,0,1-2,2h-8.8v4.76h8.44a1.84,1.84,0,0,1,1.87,1.87,1.94,1.94,0,0,1-1.87,1.9h-8.44v4.85h8.86a2,2,0,0,1,2,2,2,2,0,0,1-2,2h-10a2.83,2.83,0,0,1-3-3V126.14a2.82,2.82,0,0,1,3-3Z" transform="translate(-6.54 -16.71)"/><path class="cls-2" d="M396.24,100.3a1.79,1.79,0,0,1-.9,1.75,14.25,14.25,0,0,1-7.85,2c-5.4,0-7.85-3-7.85-6.55,0-3.16,2.19-6.07,7.66-6.07a16.37,16.37,0,0,1,4.14.56V91c0-1.94-.94-2.9-3.54-2.9a12.19,12.19,0,0,0-3.57.63c-2.12.67-3.43-.41-3.43-1.94a2.35,2.35,0,0,1,1.64-2.27,15.78,15.78,0,0,1,5.47-.93c5.25,0,8.23,2.31,8.23,7.56Zm-4.8-1.41V95.54a12.29,12.29,0,0,0-3.73-.59c-2,0-3.23,1-3.23,2.41,0,1.64,1.3,2.5,3.35,2.5A6.43,6.43,0,0,0,391.44,98.89Z" transform="translate(-6.54 -16.71)"/><path class="cls-2" d="M401.84,90.51a3.12,3.12,0,0,1-3.23-3c0-.31,0-.63,0-.94a3.24,3.24,0,0,1,6.45,0,7.37,7.37,0,0,1,0,.94A3.12,3.12,0,0,1,401.84,90.51Zm2.57-3.93a2.58,2.58,0,0,0-5.13,0,5.9,5.9,0,0,0,0,1,2.58,2.58,0,0,0,5.13,0A8.85,8.85,0,0,0,404.41,86.58Zm-2.52,1a.26.26,0,0,0-.25-.11h-.51v1a.33.33,0,0,1-.65,0V85.71a.4.4,0,0,1,.45-.41h1.13a1.14,1.14,0,0,1,1.28,1.1,1,1,0,0,1-.8,1l.84,1a.29.29,0,0,1,.09.21.32.32,0,0,1-.36.3.33.33,0,0,1-.24-.12ZM402,87c.51,0,.69-.23.69-.54s-.2-.55-.66-.55h-.87V87Z" transform="translate(-6.54 -16.71)"/></svg>
